<svg xmlns="http://www.w3.org/2000/svg" viewBox="0 0 828.09 151.29">
    <defs>
        <style>.cls-1{fill:#7560ff;}.cls-2{fill:#f27ae4;}</style>
    </defs>
    <g id="Layer_2" data-name="Layer 2">
        <g id="Layer_1-2" data-name="Layer 1">
            <path class="cls-1"
                  d="M255.84,149.48H195V8.48h58.17c29.49,0,45.85,15.36,45.85,36.36,0,17.17-10.3,27.88-24,32.32,16,2.83,27.26,17.58,27.26,34.14C302.29,133.72,285.13,149.48,255.84,149.48ZM249.17,31.31H223.31V66.66h25.86c13.33,0,21-6.06,21-17.58C270.18,37.77,262.5,31.31,249.17,31.31Zm2,57.16H223.31v38H251.8c13.73,0,21.81-6.67,21.81-18.58C273.61,95.75,264.93,88.47,251.19,88.47Z"/>
            <path class="cls-1"
                  d="M373.8,151.29c-32.52,0-56.15-22.62-56.15-57.77,0-35.35,23-57.77,56.15-57.77,32.32,0,55.15,22,55.15,55.35a65.69,65.69,0,0,1-.81,10.91H346.33c1.41,16.56,12.73,25.85,26.87,25.85,12.12,0,18.78-6.06,22.42-13.53h30.5C420.06,134.93,401.48,151.29,373.8,151.29ZM346.53,83h53.13c-.41-14.75-12.12-24-26.67-24C359.46,59,348.75,67.67,346.53,83Z"/>
            <path class="cls-1"
                  d="M555.2,149.48H526.71V135.34c-7.07,9.49-19.39,15.55-33.33,15.55-26.05,0-44.84-17-44.84-47.67V37.57h28.28V99.18c0,18,9.9,27.67,24.85,27.67,15.35,0,25-9.69,25-27.67V37.57H555.2Z"/>
            <path class="cls-1"
                  d="M648.32,35.75c28.68,0,51.1,22.42,51.1,57.37s-22.42,58.17-51.1,58.17c-17.58,0-30.1-8.07-37-17.77v16H583.07V0h28.28V53.93C618.22,43.63,631.35,35.75,648.32,35.75ZM640.84,60.6c-15.15,0-29.49,11.71-29.49,32.92s14.34,32.93,29.49,32.93c15.36,0,29.7-12.12,29.7-33.33S656.2,60.6,640.84,60.6Z"/>
            <path class="cls-1"
                  d="M769.72,151.29c-32.32,0-56.76-22.62-56.76-57.77,0-35.35,25.25-57.77,57.57-57.77s57.56,22.42,57.56,57.77C828.09,128.67,802.24,151.29,769.72,151.29Zm0-24.64c14.95,0,29.29-10.91,29.29-33.13,0-22.42-13.94-33.12-28.89-33.12s-28.48,10.7-28.48,33.12C741.64,115.74,754.57,126.65,769.72,126.65Z"/>
            <path class="cls-1"
                  d="M154.49,94.4c-.11.47-.21,1-.33,1.43a11.85,11.85,0,0,1-4.74,6.46l-17.14,12.52L90.5,145.32a22.25,22.25,0,0,1-15.19,4.09,23,23,0,0,1-12.24-4.69q-28.8-21.16-57.69-42.21a15,15,0,0,1-3.45-3.34,9.57,9.57,0,0,1,.49-12.12,18.45,18.45,0,0,1,3.37-3c3.56-2.58,7.2-5,10.79-7.58a.83.83,0,0,1,1.16,0Q41.52,93.85,65.3,111.25a20.07,20.07,0,0,0,14.42,3.65A19.7,19.7,0,0,0,89.5,111Q113,93.73,136.61,76.55a1,1,0,0,1,1.42,0c3.57,2.54,7.17,5,10.76,7.53A12.84,12.84,0,0,1,154,90.61c.19.61.31,1.24.47,1.86Z"/>
            <path class="cls-2"
                  d="M78.53,8.53c.88.17,1.77.3,2.64.5a12.69,12.69,0,0,1,4.43,2q19.31,13.47,38.61,27a11.65,11.65,0,0,1,2.62,2.53,6.14,6.14,0,0,1-.34,7.88,10.85,10.85,0,0,1-1.93,1.78Q105.27,64.3,86,78.38a15.21,15.21,0,0,1-17.43,0Q49.21,64.27,29.89,50.12A11.67,11.67,0,0,1,28.57,49a6.45,6.45,0,0,1-.24-9.33,11.85,11.85,0,0,1,2.05-1.75Q49.54,24.51,68.72,11.14a14.19,14.19,0,0,1,6.74-2.5A2.88,2.88,0,0,0,76,8.53Z"/>
        </g>
    </g>
</svg>